<mxfile modified="2024-03-09T07:38:24.810Z" host="app.diagrams.net" agent="Mozilla/5.0 (X11; Linux x86_64; rv:123.0) Gecko/20100101 Firefox/123.0" etag="eMM2a6o2mdjgfElwBalg" version="24.0.2" type="github">
  <diagram id="l8hXMBHkgcEJcSW0mbfh" name="Page-1">
    <mxGraphModel dx="1050" dy="546" grid="1" gridSize="10" guides="1" tooltips="1" connect="1" arrows="1" fold="1" page="1" pageScale="1" pageWidth="1169" pageHeight="827" math="0" shadow="0">
      <root>
        <mxCell id="0" />
        <mxCell id="1" parent="0" />
        <mxCell id="HFkbGWzhtWchpnAS7qv4-1" value="&lt;div&gt;Splunk Server&lt;/div&gt;&lt;div&gt;IP: 192.168.2.22&lt;br&gt;&lt;/div&gt;" style="image;aspect=fixed;perimeter=ellipsePerimeter;html=1;align=center;shadow=0;dashed=0;spacingTop=3;image=img/lib/active_directory/generic_server.svg;" vertex="1" parent="1">
          <mxGeometry x="80" y="200" width="28.000000000000004" height="50" as="geometry" />
        </mxCell>
        <mxCell id="HFkbGWzhtWchpnAS7qv4-2" value="&lt;div&gt;Active Directory&lt;/div&gt;&lt;div&gt;IP:192.168.2.2&lt;/div&gt;&lt;div&gt;Splunk Universal Forwarder&lt;/div&gt;&lt;div&gt;Sysmon&lt;br&gt;&lt;/div&gt;" style="image;aspect=fixed;perimeter=ellipsePerimeter;html=1;align=center;shadow=0;dashed=0;spacingTop=3;image=img/lib/active_directory/generic_server.svg;" vertex="1" parent="1">
          <mxGeometry x="80" y="320" width="28.000000000000004" height="50" as="geometry" />
        </mxCell>
        <mxCell id="HFkbGWzhtWchpnAS7qv4-26" style="rounded=0;orthogonalLoop=1;jettySize=auto;html=1;entryX=1;entryY=0.75;entryDx=0;entryDy=0;fillColor=#008a00;strokeColor=#005700;dashed=1;" edge="1" parent="1" source="HFkbGWzhtWchpnAS7qv4-3" target="HFkbGWzhtWchpnAS7qv4-1">
          <mxGeometry relative="1" as="geometry" />
        </mxCell>
        <mxCell id="HFkbGWzhtWchpnAS7qv4-3" value="&lt;div&gt;Windows 11&lt;/div&gt;&lt;div&gt;IP: dynamic&lt;/div&gt;&lt;div&gt;Spunk Universal Forwarder&lt;/div&gt;&lt;div&gt;Sysmon&lt;br&gt;&lt;/div&gt;" style="verticalLabelPosition=bottom;html=1;verticalAlign=top;align=center;strokeColor=none;fillColor=#00BEF2;shape=mxgraph.azure.computer;pointerEvents=1;" vertex="1" parent="1">
          <mxGeometry x="390" y="391" width="50" height="45" as="geometry" />
        </mxCell>
        <mxCell id="HFkbGWzhtWchpnAS7qv4-4" value="&lt;div&gt;Arch/Garuda&lt;/div&gt;&lt;div&gt;IP:192.168.2.44&lt;br&gt;&lt;/div&gt;" style="verticalLabelPosition=bottom;html=1;verticalAlign=top;align=center;strokeColor=#C73500;fillColor=#fa6800;shape=mxgraph.azure.computer;pointerEvents=1;fontColor=#000000;" vertex="1" parent="1">
          <mxGeometry x="640" y="252.5" width="50" height="45" as="geometry" />
        </mxCell>
        <mxCell id="HFkbGWzhtWchpnAS7qv4-17" style="edgeStyle=orthogonalEdgeStyle;rounded=0;orthogonalLoop=1;jettySize=auto;html=1;" edge="1" parent="1" source="HFkbGWzhtWchpnAS7qv4-6" target="HFkbGWzhtWchpnAS7qv4-7">
          <mxGeometry relative="1" as="geometry">
            <Array as="points">
              <mxPoint x="320" y="185" />
            </Array>
          </mxGeometry>
        </mxCell>
        <mxCell id="HFkbGWzhtWchpnAS7qv4-6" value="" style="sketch=0;points=[[0.015,0.015,0],[0.985,0.015,0],[0.985,0.985,0],[0.015,0.985,0],[0.25,0,0],[0.5,0,0],[0.75,0,0],[1,0.25,0],[1,0.5,0],[1,0.75,0],[0.75,1,0],[0.5,1,0],[0.25,1,0],[0,0.75,0],[0,0.5,0],[0,0.25,0]];verticalLabelPosition=bottom;html=1;verticalAlign=top;aspect=fixed;align=center;pointerEvents=1;shape=mxgraph.cisco19.rect;prIcon=workgroup_switch;fillColor=#FAFAFA;strokeColor=#005073;" vertex="1" parent="1">
          <mxGeometry x="290" y="250" width="50" height="50" as="geometry" />
        </mxCell>
        <mxCell id="HFkbGWzhtWchpnAS7qv4-12" value="" style="edgeStyle=orthogonalEdgeStyle;rounded=0;orthogonalLoop=1;jettySize=auto;html=1;" edge="1" parent="1" source="HFkbGWzhtWchpnAS7qv4-7" target="HFkbGWzhtWchpnAS7qv4-9">
          <mxGeometry relative="1" as="geometry" />
        </mxCell>
        <mxCell id="HFkbGWzhtWchpnAS7qv4-7" value="" style="image;aspect=fixed;html=1;points=[];align=center;fontSize=12;image=img/lib/azure2/networking/Virtual_Router.svg;" vertex="1" parent="1">
          <mxGeometry x="412.62" y="160" width="50" height="50" as="geometry" />
        </mxCell>
        <mxCell id="HFkbGWzhtWchpnAS7qv4-9" value="" style="image;aspect=fixed;perimeter=ellipsePerimeter;html=1;align=center;shadow=0;dashed=0;spacingTop=3;image=img/lib/active_directory/internet_cloud.svg;" vertex="1" parent="1">
          <mxGeometry x="390" y="20" width="95.24" height="60" as="geometry" />
        </mxCell>
        <mxCell id="HFkbGWzhtWchpnAS7qv4-14" style="edgeStyle=orthogonalEdgeStyle;rounded=0;orthogonalLoop=1;jettySize=auto;html=1;entryX=0;entryY=0.5;entryDx=0;entryDy=0;entryPerimeter=0;" edge="1" parent="1" source="HFkbGWzhtWchpnAS7qv4-6" target="HFkbGWzhtWchpnAS7qv4-3">
          <mxGeometry relative="1" as="geometry">
            <Array as="points">
              <mxPoint x="315" y="414" />
              <mxPoint x="365" y="414" />
            </Array>
          </mxGeometry>
        </mxCell>
        <mxCell id="HFkbGWzhtWchpnAS7qv4-19" style="edgeStyle=orthogonalEdgeStyle;rounded=0;orthogonalLoop=1;jettySize=auto;html=1;entryX=0;entryY=0.5;entryDx=0;entryDy=0;entryPerimeter=0;" edge="1" parent="1" source="HFkbGWzhtWchpnAS7qv4-1" target="HFkbGWzhtWchpnAS7qv4-6">
          <mxGeometry relative="1" as="geometry" />
        </mxCell>
        <mxCell id="HFkbGWzhtWchpnAS7qv4-20" style="edgeStyle=orthogonalEdgeStyle;rounded=0;orthogonalLoop=1;jettySize=auto;html=1;entryX=0;entryY=0.5;entryDx=0;entryDy=0;entryPerimeter=0;" edge="1" parent="1" source="HFkbGWzhtWchpnAS7qv4-2" target="HFkbGWzhtWchpnAS7qv4-6">
          <mxGeometry relative="1" as="geometry" />
        </mxCell>
        <mxCell id="HFkbGWzhtWchpnAS7qv4-21" style="edgeStyle=orthogonalEdgeStyle;rounded=0;orthogonalLoop=1;jettySize=auto;html=1;entryX=1;entryY=0.5;entryDx=0;entryDy=0;entryPerimeter=0;" edge="1" parent="1" source="HFkbGWzhtWchpnAS7qv4-4" target="HFkbGWzhtWchpnAS7qv4-6">
          <mxGeometry relative="1" as="geometry" />
        </mxCell>
        <mxCell id="HFkbGWzhtWchpnAS7qv4-24" value="&lt;font color=&quot;#009900&quot;&gt;Internet&lt;/font&gt;" style="text;strokeColor=none;align=center;fillColor=none;html=1;verticalAlign=middle;whiteSpace=wrap;rounded=0;" vertex="1" parent="1">
          <mxGeometry x="407.62" y="35" width="60" height="30" as="geometry" />
        </mxCell>
        <mxCell id="HFkbGWzhtWchpnAS7qv4-25" value="&lt;div&gt;Domain: s3cure&lt;/div&gt;&lt;div&gt;Network: 192.168.2.0/24&lt;/div&gt;&lt;div&gt;Spunk Server: 192.168.2.22&lt;/div&gt;&lt;div&gt;Active Directory: 192.168.2.2&lt;/div&gt;&lt;div&gt;Attacker: 192.168.2.&lt;br&gt;&lt;/div&gt;&lt;div&gt;&lt;br&gt;&lt;/div&gt;&lt;div&gt;&lt;br&gt;&lt;/div&gt;" style="text;strokeColor=none;align=center;fillColor=none;html=1;verticalAlign=middle;whiteSpace=wrap;rounded=0;" vertex="1" parent="1">
          <mxGeometry x="10" y="35" width="220" height="115" as="geometry" />
        </mxCell>
      </root>
    </mxGraphModel>
  </diagram>
</mxfile>
